<svg width="23" height="20" viewBox="0 0 23 20" fill="none" xmlns="http://www.w3.org/2000/svg">
  <path d="M22.8816 15.7686L19.0847 19.7276C19.0022 19.8136 18.9023 19.8822 18.7913 19.929C18.6804 19.9759 18.5606 20.0001 18.4397 20H0.440787C0.354903 20 0.270892 19.9756 0.199076 19.9298C0.127258 19.884 0.0707625 19.8188 0.0365303 19.7423C0.00229825 19.6657 -0.00817936 19.581 0.00638493 19.4988C0.0209492 19.4165 0.0599209 19.3401 0.118512 19.279L3.91822 15.32C4.00054 15.2342 4.10008 15.1658 4.21068 15.119C4.32131 15.0721 4.44064 15.0478 4.56131 15.0476H22.5592C22.6451 15.0476 22.7291 15.072 22.801 15.1178C22.8727 15.1636 22.9292 15.2288 22.9635 15.3054C22.9977 15.382 23.0082 15.4666 22.9936 15.5489C22.979 15.6312 22.9401 15.7075 22.8816 15.7686ZM19.0847 7.79618C19.0022 7.71018 18.9023 7.64161 18.7913 7.59475C18.6804 7.54791 18.5606 7.52375 18.4397 7.52382H0.440787C0.354903 7.52382 0.270892 7.5482 0.199076 7.594C0.127258 7.6398 0.0707625 7.70498 0.0365303 7.78155C0.00229825 7.85814 -0.00817936 7.94277 0.00638493 8.02507C0.0209492 8.10734 0.0599209 8.18371 0.118512 8.24477L3.91822 12.2038C4.00054 12.2896 4.10008 12.358 4.21068 12.4049C4.32131 12.4517 4.44064 12.476 4.56131 12.4762H22.5592C22.6451 12.4762 22.7291 12.4518 22.801 12.406C22.8727 12.3602 22.9292 12.295 22.9635 12.2185C22.9977 12.1419 23.0082 12.0572 22.9936 11.9749C22.979 11.8927 22.9401 11.8163 22.8816 11.7552L19.0847 7.79618ZM0.440787 4.95239H18.4397C18.5606 4.95243 18.6804 4.9283 18.7913 4.88143C18.9023 4.83457 19.0022 4.766 19.0847 4.68L22.8816 0.720952C22.9401 0.659902 22.979 0.583541 22.9936 0.50125C23.0082 0.418959 22.9977 0.334325 22.9635 0.257745C22.9292 0.181166 22.8727 0.115976 22.801 0.070187C22.7291 0.0243975 22.6451 2.81986e-06 22.5592 0H4.56131C4.44064 0.000199636 4.32131 0.024477 4.21068 0.0713291C4.10008 0.118181 4.00054 0.186611 3.91822 0.272382L0.119491 4.23143C0.060957 4.29241 0.0220025 4.3687 0.0074052 4.45089C-0.00719214 4.53309 0.00320233 4.61766 0.0373137 4.6942C0.0714252 4.77075 0.127771 4.83593 0.19944 4.8818C0.271111 4.92766 0.354988 4.95218 0.440787 4.95239Z" fill="currentColor" />
</svg>
