<svg width="1.25em" height="auto" viewBox="0 0 20 20" fill="none" xmlns="http://www.w3.org/2000/svg">
  <path fillRule="evenodd" clipRule="evenodd" d="M10 0C15.5228 0 20 4.47715 20 10C20 15.5228 15.5228 20 10 20C4.47715 20 0 15.5228 0 10C0 4.47715 4.47715 0 10 0ZM14.0889 6.01953C13.7127 6.02617 13.1354 6.22678 10.3584 7.38184C9.3857 7.78642 7.44143 8.62351 4.52637 9.89355C4.05333 10.0817 3.80593 10.2663 3.7832 10.4463C3.73987 10.792 4.23712 10.9 4.86328 11.1035C5.37385 11.2695 6.06091 11.464 6.41797 11.4717C6.74185 11.4787 7.10384 11.3444 7.50293 11.0703C10.2264 9.23191 11.6324 8.30226 11.7207 8.28223C11.783 8.2681 11.8693 8.25084 11.9277 8.30273C11.9861 8.35473 11.9798 8.4531 11.9736 8.47949C11.9236 8.691 9.36641 11.0176 9.21875 11.1709C8.65612 11.7553 8.01586 12.1131 9.00293 12.7637C9.85725 13.3267 10.3552 13.6858 11.2354 14.2627C11.7976 14.6313 12.2387 15.0681 12.8193 15.0146C13.0864 14.9899 13.3628 14.7391 13.5029 13.9902C13.8342 12.2194 14.4852 8.38227 14.6357 6.80078C14.6489 6.66224 14.6325 6.48408 14.6191 6.40625C14.6058 6.32845 14.5776 6.21771 14.4766 6.13574C14.3568 6.03852 14.1716 6.01807 14.0889 6.01953Z" fill="currentColor" />
</svg>
