<svg width="auto" height="1.6em" viewBox="0 0 105 20" fill="none" xmlns="http://www.w3.org/2000/svg">
  <path d="M77.4813 5C78.4188 5 79.1833 5.04167 79.775 5.125C80.3667 5.20417 80.8229 5.34375 81.1438 5.54375C81.4688 5.74375 81.6917 6.02083 81.8125 6.375C81.9375 6.72917 82 7.17917 82 7.725C82 8.37083 81.8771 8.86458 81.6312 9.20625C81.3896 9.54792 81.0771 9.75417 80.6937 9.825C81.0813 9.90417 81.3958 10.1229 81.6375 10.4813C81.8792 10.8396 82 11.3542 82 12.025C82 12.5875 81.9458 13.0604 81.8375 13.4438C81.7333 13.8229 81.5292 14.1271 81.225 14.3562C80.9208 14.5854 80.4813 14.75 79.9062 14.85C79.3313 14.95 78.575 15 77.6375 15H75.8375C74.9 15 74.1438 14.95 73.5688 14.85C72.9938 14.75 72.5542 14.5854 72.25 14.3562C71.9458 14.1271 71.7396 13.8229 71.6313 13.4438C71.5271 13.0604 71.475 12.5875 71.475 12.025H72.675C72.675 12.4417 72.7042 12.7771 72.7625 13.0312C72.825 13.2854 72.9604 13.4812 73.1688 13.6188C73.3771 13.7521 73.6979 13.8438 74.1312 13.8938C74.5646 13.9396 75.1542 13.9625 75.9 13.9625H77.575C78.3208 13.9625 78.9104 13.9396 79.3438 13.8938C79.7771 13.8438 80.0979 13.7521 80.3063 13.6188C80.5146 13.4812 80.6479 13.2854 80.7063 13.0312C80.7688 12.7771 80.8 12.4417 80.8 12.025C80.8 11.6542 80.7708 11.3563 80.7125 11.1313C80.6542 10.9062 80.5229 10.7354 80.3187 10.6188C80.1146 10.5021 79.7979 10.425 79.3688 10.3875C78.9396 10.3458 78.3521 10.325 77.6063 10.325H75.7438V9.31875H77.8563C78.5396 9.31875 79.0792 9.29792 79.475 9.25625C79.8708 9.21458 80.1625 9.13958 80.35 9.03125C80.5417 8.91875 80.6646 8.75833 80.7188 8.55C80.7729 8.3375 80.8 8.0625 80.8 7.725C80.8 7.325 80.7604 7.01042 80.6813 6.78125C80.6063 6.55208 80.4542 6.38542 80.225 6.28125C79.9958 6.17708 79.6562 6.11042 79.2063 6.08125C78.7604 6.05208 78.1646 6.0375 77.4188 6.0375H76.0563C75.3104 6.0375 74.7125 6.05208 74.2625 6.08125C73.8167 6.11042 73.4792 6.17708 73.25 6.28125C73.0208 6.38542 72.8667 6.55208 72.7875 6.78125C72.7125 7.01042 72.675 7.325 72.675 7.725H71.475C71.475 7.17917 71.5354 6.72917 71.6562 6.375C71.7812 6.02083 72.0042 5.74375 72.325 5.54375C72.65 5.34375 73.1083 5.20417 73.7 5.125C74.2917 5.04167 75.0563 5 75.9938 5H77.4813Z" fill="white" />
  <path d="M89.6562 5C90.5938 5 91.3583 5.04167 91.95 5.125C92.5417 5.20417 92.9979 5.34375 93.3187 5.54375C93.6438 5.74375 93.8667 6.02083 93.9875 6.375C94.1125 6.72917 94.175 7.17917 94.175 7.725C94.175 8.37083 94.0521 8.86458 93.8063 9.20625C93.5646 9.54792 93.2521 9.75417 92.8688 9.825C93.2562 9.90417 93.5708 10.1229 93.8125 10.4813C94.0542 10.8396 94.175 11.3542 94.175 12.025C94.175 12.5875 94.1208 13.0604 94.0125 13.4438C93.9083 13.8229 93.7042 14.1271 93.4 14.3562C93.0958 14.5854 92.6562 14.75 92.0813 14.85C91.5062 14.95 90.75 15 89.8125 15H88.0125C87.075 15 86.3187 14.95 85.7438 14.85C85.1688 14.75 84.7292 14.5854 84.425 14.3562C84.1208 14.1271 83.9146 13.8229 83.8063 13.4438C83.7021 13.0604 83.65 12.5875 83.65 12.025H84.85C84.85 12.4417 84.8792 12.7771 84.9375 13.0312C85 13.2854 85.1354 13.4812 85.3438 13.6188C85.5521 13.7521 85.8729 13.8438 86.3063 13.8938C86.7396 13.9396 87.3292 13.9625 88.075 13.9625H89.75C90.4958 13.9625 91.0854 13.9396 91.5188 13.8938C91.9521 13.8438 92.2729 13.7521 92.4813 13.6188C92.6896 13.4812 92.8229 13.2854 92.8812 13.0312C92.9437 12.7771 92.975 12.4417 92.975 12.025C92.975 11.6542 92.9458 11.3563 92.8875 11.1313C92.8292 10.9062 92.6979 10.7354 92.4938 10.6188C92.2896 10.5021 91.9729 10.425 91.5438 10.3875C91.1146 10.3458 90.5271 10.325 89.7812 10.325H87.9188V9.31875H90.0312C90.7146 9.31875 91.2542 9.29792 91.65 9.25625C92.0458 9.21458 92.3375 9.13958 92.525 9.03125C92.7167 8.91875 92.8396 8.75833 92.8938 8.55C92.9479 8.3375 92.975 8.0625 92.975 7.725C92.975 7.325 92.9354 7.01042 92.8563 6.78125C92.7812 6.55208 92.6292 6.38542 92.4 6.28125C92.1708 6.17708 91.8313 6.11042 91.3812 6.08125C90.9354 6.05208 90.3396 6.0375 89.5938 6.0375H88.2313C87.4854 6.0375 86.8875 6.05208 86.4375 6.08125C85.9917 6.11042 85.6542 6.17708 85.425 6.28125C85.1958 6.38542 85.0417 6.55208 84.9625 6.78125C84.8875 7.01042 84.85 7.325 84.85 7.725H83.65C83.65 7.17917 83.7104 6.72917 83.8313 6.375C83.9563 6.02083 84.1792 5.74375 84.5 5.54375C84.825 5.34375 85.2833 5.20417 85.875 5.125C86.4667 5.04167 87.2313 5 88.1688 5H89.6562Z" fill="white" />
  <path d="M11.2 13.8H18.8V14.8H10V5.2H11.2V13.8Z" fill="white" />
  <path fillRule="evenodd" clipRule="evenodd" d="M32.4 14.8H31L29.8 12.6H22.2L21 14.8H19.6L25.2 5.2H26.8L32.4 14.8ZM22.8 11.6H29.2L26 6L22.8 11.6Z" fill="white" />
  <path d="M39.6 9.9L44 5.2H45.6L40.2 10.8V14.8H39V10.8L33.6 5.2H35.2L39.6 9.9Z" fill="white" />
  <path d="M57.025 6.2H48.8V9.4H56.6813V10.4H48.8V13.8H57.2V14.8H47.6V5.2H57.025V6.2Z" fill="white" />
  <path fillRule="evenodd" clipRule="evenodd" d="M65.25 5.2C66.1875 5.2 66.9417 5.24167 67.5125 5.325C68.0875 5.40833 68.5229 5.55208 68.8188 5.75625C69.1146 5.96042 69.3146 6.23958 69.4188 6.59375C69.5229 6.94792 69.575 7.39583 69.575 7.9375V8.1875C69.575 8.6875 69.5146 9.11875 69.3938 9.48125C69.2771 9.83958 69.05 10.1312 68.7125 10.3563C68.375 10.5771 67.875 10.7333 67.2125 10.825L69.3 14.8H68.1L66.0563 10.9125C65.9729 10.9167 65.8854 10.9188 65.7938 10.9188H60.025V14.8H58.825V5.2H65.25ZM60.025 9.88125H65.3313C66.0438 9.88125 66.6042 9.85833 67.0125 9.8125C67.425 9.7625 67.7271 9.67708 67.9188 9.55625C68.1146 9.43542 68.2396 9.26458 68.2938 9.04375C68.3479 8.82292 68.375 8.5375 68.375 8.1875V7.9375C68.375 7.54167 68.3375 7.22917 68.2625 7C68.1875 6.77083 68.0375 6.60208 67.8125 6.49375C67.5875 6.38542 67.2521 6.31667 66.8063 6.2875C66.3604 6.25417 65.7646 6.2375 65.0188 6.2375H60.025V9.88125Z" fill="white" />
</svg>
